<svg width="285" height="116" viewBox="0 0 285 116" fill="none" xmlns="http://www.w3.org/2000/svg">
<path d="M116.494 33.7661C117.541 34.427 119.11 34.9502 120.735 34.9502C123.159 34.9502 124.59 33.6835 124.59 31.8384C124.59 30.131 123.599 29.1396 121.121 28.2033C118.119 27.1293 116.274 25.5597 116.274 22.9986C116.274 20.1346 118.642 18.0142 122.222 18.0142C124.095 18.0142 125.472 18.4548 126.27 18.8954L125.609 20.8506C125.031 20.4926 123.792 19.9694 122.14 19.9694C119.606 19.9694 118.67 21.4564 118.67 22.7232C118.67 24.4306 119.799 25.2567 122.332 26.2481C125.444 27.4598 127.014 28.9744 127.014 31.6456C127.014 34.3168 124.948 36.933 120.597 36.933C118.835 36.933 116.88 36.4098 115.916 35.7488L116.549 33.7661H116.494Z" fill="white"/>
<path d="M136.46 18.2896V25.9727H145.328V18.2896H147.723V36.6301H145.328V28.0106H136.46V36.6301H134.064V18.2896H136.46Z" fill="white"/>
<path d="M171.627 27.2946C171.627 33.6008 167.799 36.9605 163.118 36.9605C158.436 36.9605 154.856 33.1878 154.856 27.6526C154.856 22.1174 158.464 18.0142 163.366 18.0142C168.268 18.0142 171.627 21.842 171.627 27.3221V27.2946ZM157.362 27.57C157.362 31.5079 159.483 35.0053 163.228 35.0053C166.973 35.0053 169.121 31.563 169.121 27.3772C169.121 23.7146 167.221 19.9143 163.283 19.9143C159.345 19.9143 157.39 23.5494 157.39 27.57H157.362Z" fill="white"/>
<path d="M178.786 18.5103C179.943 18.3176 181.43 18.1523 183.358 18.1523C185.671 18.1523 187.406 18.7031 188.507 19.667C189.499 20.5482 190.132 21.87 190.132 23.4948C190.132 25.1195 189.636 26.4689 188.7 27.4328C187.433 28.7821 185.395 29.443 183.082 29.443C182.366 29.443 181.705 29.443 181.154 29.2778V36.6305H178.786V18.5103ZM181.154 27.3501C181.678 27.5154 182.338 27.5704 183.109 27.5704C185.973 27.5704 187.709 26.166 187.709 23.66C187.709 21.154 185.974 20.0525 183.385 20.0525C182.339 20.0525 181.567 20.1626 181.154 20.2453V27.3777V27.3501Z" fill="white"/>
<path d="M199.55 18.2896V36.6301H197.154V18.2896H199.55Z" fill="white"/>
<path d="M207.59 18.2896H217.476V20.2723H209.986V26.3858H216.925V28.341H209.986V36.6576H207.59V18.2896Z" fill="white"/>
<path d="M229.484 36.6576V28.8643L223.674 18.2896H226.4L228.989 23.3566C229.677 24.7335 230.255 25.8626 230.806 27.1569H230.861C231.357 25.9452 231.99 24.7335 232.706 23.3566L235.35 18.2896H238.049L231.908 28.8367V36.6576H229.512H229.484Z" fill="white"/>
<path d="M116.659 49.1878C117.871 48.9675 119.551 48.8022 121.782 48.8022C124.233 48.8022 126.022 49.3255 127.179 50.2893C128.281 51.1981 128.969 52.6301 128.969 54.365C128.969 56.0999 128.418 57.5319 127.399 58.5233C126.05 59.8726 123.985 60.506 121.589 60.506C120.955 60.506 120.405 60.4785 119.937 60.3683V67.308H116.604V49.1878H116.659ZM119.992 57.7522C120.432 57.8623 120.955 57.9174 121.644 57.9174C124.15 57.9174 125.692 56.6782 125.692 54.5302C125.692 52.5199 124.288 51.4184 121.947 51.4184C121.038 51.4184 120.35 51.501 119.992 51.5836V57.7797V57.7522Z" fill="white"/>
<path d="M135.799 48.9395H139.158V64.4711H146.704V67.28H135.799V48.9395Z" fill="white"/>
<path d="M157.416 62.1028L155.847 67.28H152.377L158.27 48.9395H162.538L168.514 67.28H164.907L163.254 62.1028H157.416ZM162.676 59.5692L161.244 55.053C160.886 53.9239 160.583 52.6571 160.308 51.6107H160.253C159.977 52.6847 159.702 53.9514 159.371 55.053L157.967 59.5968H162.704L162.676 59.5692Z" fill="white"/>
<path d="M177.409 51.7767H172.177V48.9678H186.056V51.7767H180.769V67.3083H177.409V51.7767Z" fill="white"/>
<path d="M195.613 48.9395V67.28H192.253V48.9395H195.613Z" fill="white"/>
<path d="M203.378 67.3075V48.967H207.206L211.943 56.8429C213.154 58.8808 214.228 61.0012 215.054 62.984H215.109C214.861 60.5331 214.806 58.1648 214.806 55.3559V48.9395H217.918V67.28H214.448L209.657 59.2112C208.5 57.2009 207.261 54.9703 206.38 52.8774H206.297C206.435 55.2733 206.462 57.6966 206.462 60.7258V67.28H203.351L203.378 67.3075Z" fill="white"/>
<path d="M229.072 48.9395V59.6243C229.072 63.2043 230.559 64.8841 232.844 64.8841C235.268 64.8841 236.7 63.2318 236.7 59.6243V48.9395H240.059V59.4316C240.059 65.0769 237.14 67.6104 232.706 67.6104C228.273 67.6104 225.712 65.2421 225.712 59.4591V48.967H229.072V48.9395Z" fill="white"/>
<path d="M263.218 59.8179C263.108 57.4496 262.998 54.5856 262.998 52.1071H262.915C262.309 54.3653 261.538 56.8437 260.74 59.1569L258.041 67.088H255.452L253.029 59.2671C252.313 56.8988 251.652 54.4204 251.184 52.1071H251.129C251.046 54.503 250.936 57.4496 250.798 59.928L250.385 67.3083H247.273L248.485 48.9678H252.891L255.287 56.348C255.948 58.5236 256.526 60.6991 256.967 62.7369H257.05C257.545 60.7266 258.179 58.496 258.895 56.3205L261.428 48.9678H265.779L266.826 67.3083H263.549L263.191 59.8179H263.218Z" fill="white"/>
<path d="M116.825 79.838C117.982 79.6452 119.469 79.48 121.397 79.48C123.71 79.48 125.445 80.0307 126.546 80.9946C127.538 81.8758 128.171 83.1977 128.171 84.8224C128.171 86.4472 127.675 87.7966 126.739 88.7604C125.472 90.1098 123.435 90.7707 121.121 90.7707C120.405 90.7707 119.744 90.7707 119.193 90.6055V97.9582H116.825V79.838ZM119.193 88.6778C119.717 88.843 120.377 88.8981 121.149 88.8981C124.013 88.8981 125.748 87.4936 125.748 84.9876C125.748 82.4817 124.013 81.3801 121.424 81.3801C120.378 81.3801 119.607 81.4903 119.193 81.5729V88.7053V88.6778Z" fill="white"/>
<path d="M137.204 92.2027L135.303 97.9582H132.853L139.104 79.6177H141.968L148.247 97.9582H145.713L143.758 92.2027H137.259H137.204ZM143.235 90.3301L141.417 85.0427C141.032 83.831 140.756 82.757 140.481 81.683H140.426C140.15 82.757 139.875 83.8861 139.517 84.9876L137.699 90.3025H143.235V90.3301Z" fill="white"/>
<path d="M155.352 79.8655C156.563 79.6177 158.271 79.48 159.923 79.48C162.429 79.48 164.109 79.9481 165.238 80.9946C166.146 81.7932 166.67 83.06 166.67 84.492C166.67 86.9153 165.128 88.5125 163.2 89.1735V89.2285C164.604 89.7242 165.458 91.0461 165.899 92.9462C166.504 95.5073 166.945 97.2697 167.303 97.9857H164.852C164.577 97.4625 164.164 95.8928 163.641 93.5796C163.09 91.0736 162.099 90.0822 159.951 90.0272H157.72V97.9857H155.352V79.8931V79.8655ZM157.72 88.2096H160.143C162.677 88.2096 164.274 86.8327 164.274 84.7123C164.274 82.3164 162.566 81.2975 160.061 81.2975C158.904 81.2975 158.105 81.4077 157.72 81.5178V88.2096Z" fill="white"/>
<path d="M177.906 81.5992H172.315V79.5889H185.919V81.5992H180.302V97.9569H177.906V81.5992Z" fill="white"/>
<path d="M191.978 97.9582V79.6177H194.594L200.459 88.8981C201.809 91.0461 202.855 92.9738 203.737 94.8739H203.791C203.571 92.3954 203.544 90.1648 203.544 87.3009V79.6177H205.774V97.9582H203.351L197.513 88.6502C196.246 86.5849 195.007 84.492 194.098 82.5092H194.016C194.153 84.85 194.181 87.0806 194.181 90.1098V97.9582H191.95H191.978Z" fill="white"/>
<path d="M223.923 89.3651H216.818V96.0018H224.776V97.9846H214.449V79.644H224.363V81.6268H216.818V87.4374H223.923V89.3926V89.3651Z" fill="white"/>
<path d="M232.404 79.8655C233.616 79.6177 235.323 79.48 236.976 79.48C239.482 79.48 241.162 79.9481 242.291 80.9946C243.2 81.7932 243.723 83.06 243.723 84.492C243.723 86.9153 242.18 88.5125 240.253 89.1735V89.2285C241.657 89.7242 242.511 91.0461 242.952 92.9462C243.558 95.5073 243.998 97.2697 244.356 97.9857H241.905C241.63 97.4625 241.217 95.8928 240.693 93.5796C240.143 91.0736 239.151 90.0822 237.003 90.0272H234.773V97.9857H232.404V79.8931V79.8655ZM234.773 88.2096H237.196C239.729 88.2096 241.327 86.8327 241.327 84.7123C241.327 82.3164 239.62 81.2975 237.114 81.2975C235.957 81.2975 235.158 81.4077 234.773 81.5178V88.2096Z" fill="white"/>
<path fill-rule="evenodd" clip-rule="evenodd" d="M97.9989 18.0005H18V97.9993H97.9989V18.0005ZM60.3546 39.7291C60.3546 38.6551 60.217 37.1405 59.6937 35.8462C61.3185 36.1491 62.1447 37.9942 62.4751 39.0682C61.8418 39.261 61.1257 39.4813 60.3546 39.7291ZM51.7903 54.0766C51.8447 54.9807 52.8299 55.6048 54.0215 56.3595C55.8422 57.5128 58.1447 58.9712 58.3444 62.2004C58.6198 66.4137 56.0862 69.2777 52.4512 69.5256C48.0726 69.8009 45.6768 67.2399 45.6768 67.2399L46.6131 63.357C46.6131 63.357 49.0363 65.1745 50.964 65.0368C52.2307 64.9542 52.6713 63.9353 52.6438 63.2193C52.5593 61.9163 51.5658 61.2159 50.4481 60.428C49.0146 59.4174 47.3769 58.2629 47.1913 55.5086C46.9159 51.3778 49.6696 47.2195 55.7005 46.834C58.0137 46.6963 59.2255 47.2746 59.2255 47.2746L57.8486 52.3967C57.8486 52.3967 56.3065 51.7083 54.489 51.8184C51.8178 51.9837 51.7903 53.6635 51.8178 54.0766H51.7903ZM55.9761 34.5244C56.4718 34.5244 56.9124 34.6345 57.2704 34.8548C56.6921 35.1578 56.1138 35.5984 55.5906 36.1491C54.2137 37.6087 53.1671 39.8668 52.754 42.0423C51.9058 42.3131 51.0576 42.5719 50.2481 42.819C49.8224 42.9489 49.4075 43.0756 49.0089 43.1989C49.7524 39.7567 52.644 34.6345 55.9761 34.5244ZM58.9226 40.1697C58.4316 40.3208 57.9244 40.4751 57.4066 40.6327L57.406 40.6329C56.4137 40.9347 55.3824 41.2485 54.3511 41.5742C54.7918 39.8943 55.6457 38.242 56.6646 37.1405C57.0501 36.7274 57.5732 36.2868 58.2066 36.0114C58.8124 37.2507 58.9226 38.9856 58.9226 40.1697ZM65.1738 38.242C65.1738 38.242 64.6782 38.4073 63.8521 38.6551C63.7144 38.2145 63.4941 37.6637 63.2187 37.113C62.2824 35.323 60.9053 34.3867 59.2255 34.3867H58.8675L58.7024 34.2215C57.9864 33.4504 57.0501 33.0648 55.921 33.1199C53.773 33.175 51.6248 34.7171 49.8624 37.471C48.6232 39.3987 47.7144 41.822 47.439 43.6946C44.9606 44.4657 43.2259 44.9889 43.1983 44.9889C41.9591 45.3745 41.9039 45.402 41.7387 46.5862C41.6286 47.4674 38.3516 72.4997 38.3516 72.4997L65.5043 77.1537V38.2145C65.5043 38.2145 65.2565 38.242 65.1738 38.2696V38.242ZM77.6767 74.5931L65.9453 77.3744V38.9585C66.7164 39.6745 68.7267 41.5196 68.7267 41.5196C68.7267 41.5196 72.031 41.5746 72.1962 41.5746C72.3615 41.5746 72.5818 41.7123 72.6094 41.9326C72.6369 42.1529 77.6767 74.5931 77.6767 74.5931Z" fill="white"/>
</svg>
